<svg xmlns="http://www.w3.org/2000/svg" width="36" height="36">
    <g transform="translate(2 2)">
        <rect width="36" height="36" rx="18" transform="translate(-2 -2)"/>
        <path data-name="합치기 23" d="M15959 791.4v-4.949a4.441 4.441 0 0 1 5.45-4.332v2.1a2.4 2.4 0 0 0-1-.216 2.451 2.451 0 0 0-2.449 2.449v4.948a2.449 2.449 0 0 0 4.9 0v-.4a4.494 4.494 0 0 0 2-1.455v1.855a4.448 4.448 0 0 1-8.9 0zm3.446-1.663v-2.1a2.452 2.452 0 0 0 3.45-2.236v-4.949a2.449 2.449 0 0 0-4.9 0v.409a4.426 4.426 0 0 0-2 1.451v-1.859a4.448 4.448 0 0 1 8.9 0v4.947a4.457 4.457 0 0 1-5.45 4.336z" transform="rotate(-45 7060.347 19651.237)" style="fill:#fff"/>
    </g>
</svg>
